<svg
  viewBox="0 0 512 512"
  xmlns="http://www.w3.org/2000/svg"
>
  <path
    d="M507.5053 49.353 C506.8851 39.5649 506.0762 29.7956 505.1119 20.0262 C504.32 11.9632 496.9842 12.1883 491.4224 14.1759 C480.1951 18.151 469.8814 26.6079 461.0824 34.8208 C448.8909 46.2215 436.8369 57.8097 424.6114 69.1354 C418.6367 74.667 412.6272 80.1423 406.5309 85.4864 C405.8248 86.1052 405.1367 86.7052 404.4306 87.324 C401.9165 89.3866 399.4194 91.5055 396.8713 93.5307 C391.0164 98.1809 384.4733 102.1374 378.6871 106.9003 C377.9471 107.3689 377.2072 107.8374 376.4662 108.307 C373.2979 110.2381 370.0947 112.1132 366.8575 113.8753 C365.5491 114.5885 364.2237 115.2819 362.8974 115.9754 C360.1938 117.157 357.5081 118.3201 354.7527 119.3701 C348.8468 121.6008 342.8194 123.3639 336.6892 124.7135 C320.0039 127.0385 303.4392 125.2204 287.5288 119.2011 C240.6232 98.1621 208.4404 49.4842 180.0112 5.9441 C176.1368 0 161.9307 8.0255 159.1753 9.5631 C147.3457 16.2573 135.5849 27.0766 126.3901 37.371 C116.8672 48.0216 106.8975 59.6473 100.854 73.0731 C97.9261 79.561 93.0016 88.8241 97.5301 95.762 C127.6815 141.9649 161.1389 191.168 211.5738 211.7944 C269.9479 235.6641 331.1962 198.3306 377.4136 161.5039 C392.4115 149.54 406.841 136.864 421.0471 123.8698 C424.3012 170.9169 423.4924 218.3382 416.6222 264.953 C413.2644 285.2041 408.7697 305.2304 402.6744 324.7134 C401.1756 329.4764 399.5919 334.2197 397.9215 338.9266 C397.0947 341.233 396.251 343.5393 395.3734 345.827 C395.2179 346.2395 395.0463 346.6521 394.8738 347.0833 C391.3265 355.4275 387.4521 363.6028 383.1988 371.5532 C383.0442 371.8538 382.8717 372.1347 382.7171 372.4156 C382.6483 372.5099 382.5964 372.6219 382.5276 372.7162 C380.7884 375.5667 378.9803 378.3603 377.1374 381.1165 C376.6208 381.8109 376.0873 382.4857 375.5537 383.1792 C375.3812 383.3482 375.1917 383.4985 375.0201 383.6664 C373.642 384.7361 372.2477 385.7861 370.8356 386.8175 C369.4584 387.6799 368.0981 388.5423 366.7029 389.3488 C364.7742 390.4734 362.8286 391.5608 360.8659 392.6108 C360.2805 392.9301 359.4708 393.3239 358.644 393.7178 C355.5445 395.0861 352.4111 396.3984 349.2427 397.58 C341.1669 400.5798 332.9185 402.9058 324.5504 404.668 C293.8475 409.7305 262.4225 407.4242 233.1327 395.8925 C185.9001 375.0599 149.791 332.8887 125.4088 284.9792 C118.5376 271.4605 112.5799 257.4338 107.3801 243.0517 C93.9315 203.6751 86.2516 161.8035 86.1655 119.7443 C86.1483 111.2508 77.2115 112.4501 72.4761 113.894 C61.8862 117.1197 50.1255 127.0012 42.1357 134.539 C30.8743 145.1709 19.8884 156.9659 11.5886 170.5043 C6.44 178.9232 0 188.73 0.0172 199.2303 C0.155 262.0465 16.8578 325.9884 45.7173 380.2727 C74.818 435.0069 119.2437 479.3351 176.447 495.2731 C236.4557 512 299.4611 492.4983 349.8621 455.9898 C385.1963 430.3942 415.7606 395.8925 440.5048 358.5403 C459.791 329.4007 474.8747 296.8301 485.6881 262.9286 C507.3507 195.0115 512 120.6637 507.5053 49.3342 V49.353 Z M357.6288 394.2423 C352.9097 396.3797 354.994 395.48 357.6288 394.2423 V394.2423 Z M383.8879 370.4472 C383.5608 370.9914 383.2337 371.5346 382.9066 372.0787 C388.4514 362.1403 385.7299 367.3531 383.8879 370.4472 Z M394.1847 348.7895 C394.0301 349.1647 393.8746 349.5586 393.7548 349.9338 C393.8406 349.6902 393.9952 349.2963 394.1847 348.7895 Z M395.511 345.5461 C395.4422 345.6953 395.3734 345.8643 395.3046 346.0146 C396.3199 343.5393 397.1635 341.5709 395.511 345.5461 Z"
    fill="white"
  />
</svg>
