<svg viewBox="0 0 512 512" fill="none" xmlns="http://www.w3.org/2000/svg">
  <path d="M510.436 69.5789C509.812 60.6257 508.998 51.6896 508.028 42.7534C507.232 35.3781 499.853 35.5839 494.259 37.402C482.967 41.0382 472.593 48.7737 463.743 56.2862C451.481 66.7146 439.357 77.3144 427.06 87.6742C421.051 92.734 415.006 97.7424 408.875 102.631C408.165 103.197 407.472 103.745 406.762 104.312C404.234 106.198 401.722 108.136 399.159 109.989C393.27 114.242 386.689 117.861 380.869 122.218C380.125 122.647 379.381 123.075 378.635 123.505C375.449 125.271 372.227 126.986 368.971 128.598C367.655 129.251 366.322 129.885 364.988 130.519C362.268 131.6 359.567 132.664 356.796 133.624C350.856 135.665 344.793 137.278 338.627 138.512C321.845 140.639 305.184 138.976 289.181 133.47C242.003 114.225 209.634 69.699 181.039 29.8723C177.143 24.4352 162.854 31.7762 160.083 33.1826C148.184 39.3059 136.355 49.2025 127.107 58.6189C117.529 68.3611 107.501 78.9953 101.422 91.2761C98.4775 97.2106 93.5245 105.684 98.0793 112.03C128.406 154.292 162.057 199.299 212.785 218.166C271.498 240 333.102 205.851 379.588 172.165C394.673 161.221 409.187 149.626 423.475 137.74C426.748 180.775 425.935 224.152 419.025 266.791C415.647 285.315 411.127 303.633 404.996 321.455C403.488 325.811 401.895 330.15 400.215 334.456C399.384 336.565 398.535 338.675 397.652 340.767C397.496 341.145 397.323 341.522 397.15 341.916C393.582 349.549 389.685 357.027 385.407 364.299C385.252 364.574 385.078 364.831 384.923 365.088C384.853 365.175 384.801 365.277 384.732 365.363C382.983 367.971 381.164 370.526 379.311 373.047C378.791 373.682 378.254 374.3 377.718 374.934C377.544 375.088 377.354 375.226 377.181 375.379C375.795 376.358 374.392 377.318 372.972 378.262C371.587 379.051 370.219 379.84 368.815 380.577C366.876 381.606 364.919 382.601 362.945 383.561C362.356 383.853 361.541 384.213 360.71 384.574C357.592 385.825 354.441 387.026 351.254 388.106C343.131 390.85 334.835 392.978 326.418 394.59C295.537 399.221 263.929 397.111 234.469 386.563C186.963 367.507 150.644 328.933 126.12 285.109C119.209 272.743 113.216 259.913 107.987 246.757C94.4597 210.739 86.7353 172.439 86.6487 133.967C86.6314 126.198 77.6426 127.295 72.8798 128.615C62.2284 131.566 50.3993 140.605 42.3632 147.5C31.0363 157.225 19.9866 168.014 11.6386 180.398C6.46015 188.098 -0.0172846 197.069 3.4657e-05 206.674C0.138589 264.132 16.9384 322.621 45.9656 372.275C75.2353 422.341 119.919 462.889 177.454 477.468C237.812 492.768 301.183 474.929 351.877 441.535C387.416 418.122 418.158 386.563 443.046 352.396C462.444 325.742 477.615 295.949 488.492 264.939C510.28 202.815 514.956 134.808 510.436 69.5618V69.5789ZM359.689 385.053C357.039 386.186 354.942 387.009 359.689 385.053ZM386.1 363.288C385.771 363.786 385.442 364.282 385.113 364.78C390.69 355.689 387.953 360.458 386.1 363.288ZM396.457 343.477C396.301 343.82 396.145 344.181 396.024 344.524C396.111 344.301 396.266 343.941 396.457 343.477ZM397.791 340.51C397.722 340.647 397.652 340.801 397.583 340.939C398.604 338.675 399.453 336.874 397.791 340.51Z" fill="white"/>
</svg>
