<svg xmlns="http://www.w3.org/2000/svg" viewBox="0 0 512 512">
  <path fill="white" d="M501.8239 49.353C501.2185 39.5648 500.4275 29.7955 499.4849 20.0262C498.7114 11.9632 491.5407 12.1883 486.1046 14.1758C475.1314 18.151 465.0503 26.6079 456.4501 34.8208C444.5343 46.2215 432.7526 57.8097 420.8028 69.1353C414.9634 74.6668 409.0891 80.1423 403.1312 85.4863C402.4402 86.1051 401.7678 86.7051 401.0778 87.3239C398.6202 89.3866 396.1801 91.5053 393.6895 93.5306C387.9667 98.1808 381.5715 102.1374 375.9158 106.9C375.1928 107.3684 374.4698 107.8378 373.7449 108.3071C370.6489 110.238 367.5178 112.1135 364.3537 113.8754C363.0749 114.5886 361.7795 115.2815 360.4832 115.9753C357.84 117.157 355.2152 118.3202 352.5225 119.3697C346.7502 121.6009 340.8583 123.3637 334.8664 124.7135C318.5582 127.038 302.3676 125.2207 286.8164 119.2006C240.9703 98.1621 209.5151 49.4842 181.7274 5.9441C177.9404 0 164.0558 8.0255 161.3621 9.5631C149.8 16.2573 138.3049 27.0765 129.318 37.371C120.0104 48.0215 110.2655 59.6472 104.3582 73.073C101.4968 79.561 96.6836 88.824 101.1098 95.7619C130.5803 141.9643 163.2813 191.1678 212.5772 211.7946C269.6326 235.6641 329.4974 198.3307 374.671 161.5037C389.3301 149.5402 403.4344 136.8635 417.319 123.87C420.4996 170.9172 419.7095 218.3375 412.9946 264.9532C409.712 285.2039 405.3186 305.2301 399.3617 324.7131C397.8963 329.4757 396.3482 334.2189 394.7157 338.9262C393.9081 341.2331 393.0831 343.5391 392.225 345.8267C392.0734 346.2397 391.9053 346.6517 391.7372 347.0832C388.2699 355.4268 384.4829 363.6023 380.3257 371.5533C380.1741 371.8535 380.006 372.1344 379.8544 372.4152C379.7874 372.5095 379.7368 372.6212 379.6698 372.7155C377.9702 375.5667 376.2025 378.3595 374.4009 381.1164C373.8965 381.8103 373.3747 382.4857 372.8528 383.1785C372.6847 383.3476 372.4991 383.4982 372.332 383.6664C370.9851 384.7353 369.6217 385.7858 368.2418 386.8168C366.8959 387.6798 365.5665 388.5417 364.2021 389.3483C362.3169 390.4726 360.4152 391.56 358.4969 392.6105C357.9255 392.9293 357.1335 393.3238 356.326 393.7174C353.296 395.0856 350.233 396.3985 347.1369 397.5801C339.2433 400.579 331.1815 402.9054 323.0021 404.6672C292.9929 409.7302 262.2773 407.4241 233.649 395.8922C187.4832 375.0594 152.1905 332.8886 128.3589 284.9794C121.643 271.4602 115.8192 257.4337 110.7368 243.0515C97.5924 203.6745 90.086 161.803 90.0019 119.7439C89.985 111.2506 81.2501 112.4498 76.6218 113.8938C66.2711 117.1201 54.7759 127.001 46.9667 134.539C35.9596 145.1711 25.2218 156.9655 17.1095 170.5042C12.0773 178.9226 5.7827 188.7297 5.7995 199.2306C5.9342 262.0467 22.2597 325.988 50.4673 380.272C78.9108 435.0068 122.3329 479.335 178.2436 495.273C236.8976 512 298.4795 492.4976 347.7423 455.9892C382.278 430.3938 412.1521 395.8922 436.3375 358.5403C455.1878 329.4009 469.9305 296.8301 480.4995 262.9281C501.6733 195.0112 506.2173 120.6632 501.8239 49.3341V49.353Z"/>
</svg>
