<svg preserveAspectRatio="none" width="100%" height="100%" overflow="visible" style="display: block;" viewBox="0 0 23.9895 23.9895" fill="none" xmlns="http://www.w3.org/2000/svg">
<g id="Icon">
<path id="Vector" d="M12.2147 1.99913H11.7748C11.2446 1.99913 10.7362 2.20975 10.3613 2.58466C9.98634 2.95956 9.77572 3.46805 9.77572 3.99825V4.17817C9.77536 4.52874 9.68282 4.87306 9.50738 5.17657C9.33194 5.48009 9.07976 5.73213 8.77616 5.90741L8.34635 6.1573C8.04244 6.33276 7.6977 6.42514 7.34678 6.42514C6.99586 6.42514 6.65113 6.33276 6.34722 6.1573L6.19729 6.07734C5.73855 5.81272 5.19356 5.74093 4.68195 5.87774C4.17034 6.01454 3.73392 6.34876 3.46848 6.80702L3.24858 7.18685C2.98396 7.64559 2.91217 8.19058 3.04897 8.70219C3.18578 9.2138 3.51999 9.65022 3.97826 9.91566L4.12819 10.0156C4.43034 10.1901 4.68157 10.4405 4.85692 10.7421C5.03228 11.0437 5.12565 11.386 5.12776 11.7349V12.2446C5.12915 12.5969 5.03745 12.9433 4.86192 13.2487C4.68639 13.5541 4.43327 13.8077 4.12819 13.9839L3.97826 14.0738C3.51999 14.3393 3.18578 14.7757 3.04897 15.2873C2.91217 15.7989 2.98396 16.3439 3.24858 16.8026L3.46848 17.1825C3.73392 17.6407 4.17034 17.975 4.68195 18.1118C5.19356 18.2486 5.73855 18.1768 6.19729 17.9122L6.34722 17.8322C6.65113 17.6567 6.99586 17.5644 7.34678 17.5644C7.6977 17.5644 8.04244 17.6567 8.34635 17.8322L8.77616 18.0821C9.07976 18.2574 9.33194 18.5094 9.50738 18.8129C9.68282 19.1164 9.77536 19.4608 9.77572 19.8113V19.9912C9.77572 20.5214 9.98634 21.0299 10.3613 21.4048C10.7362 21.7798 11.2446 21.9904 11.7748 21.9904H12.2147C12.7449 21.9904 13.2533 21.7798 13.6282 21.4048C14.0032 21.0299 14.2138 20.5214 14.2138 19.9912V19.8113C14.2141 19.4608 14.3067 19.1164 14.4821 18.8129C14.6576 18.5094 14.9097 18.2574 15.2133 18.0821L15.6432 17.8322C15.9471 17.6567 16.2918 17.5644 16.6427 17.5644C16.9936 17.5644 17.3384 17.6567 17.6423 17.8322L17.7922 17.9122C18.2509 18.1768 18.7959 18.2486 19.3075 18.1118C19.8192 17.975 20.2556 17.6407 20.521 17.1825L20.7409 16.7926C21.0055 16.3339 21.0773 15.7889 20.9405 15.2773C20.8037 14.7657 20.4695 14.3293 20.0112 14.0638L19.8613 13.9839C19.5562 13.8077 19.3031 13.5541 19.1276 13.2487C18.9521 12.9433 18.8603 12.5969 18.8617 12.2446V11.7449C18.8603 11.3926 18.9521 11.0462 19.1276 10.7408C19.3031 10.4354 19.5562 10.1818 19.8613 10.0056L20.0112 9.91566C20.4695 9.65022 20.8037 9.2138 20.9405 8.70219C21.0773 8.19058 21.0055 7.64559 20.7409 7.18685L20.521 6.80702C20.2556 6.34876 19.8192 6.01454 19.3075 5.87774C18.7959 5.74093 18.2509 5.81272 17.7922 6.07734L17.6423 6.1573C17.3384 6.33276 16.9936 6.42514 16.6427 6.42514C16.2918 6.42514 15.9471 6.33276 15.6432 6.1573L15.2133 5.90741C14.9097 5.73213 14.6576 5.48009 14.4821 5.17657C14.3067 4.87306 14.2141 4.52874 14.2138 4.17817V3.99825C14.2138 3.46805 14.0032 2.95956 13.6282 2.58466C13.2533 2.20975 12.7449 1.99913 12.2147 1.99913Z" stroke="var(--stroke-0, #FF5D03)" stroke-width="1.99913" stroke-linecap="round" stroke-linejoin="round"/>
<path id="Vector_2" d="M11.9947 14.9934C13.6509 14.9934 14.9934 13.6509 14.9934 11.9947C14.9934 10.3386 13.6509 8.99606 11.9947 8.99606C10.3386 8.99606 8.99606 10.3386 8.99606 11.9947C8.99606 13.6509 10.3386 14.9934 11.9947 14.9934Z" stroke="var(--stroke-0, #FF5D03)" stroke-width="1.99913" stroke-linecap="round" stroke-linejoin="round"/>
</g>
</svg>
