<svg preserveAspectRatio="none" width="100%" height="100%" overflow="visible" style="display: block;" viewBox="0 0 139.995 31.3404" fill="none" xmlns="http://www.w3.org/2000/svg">
<g id="Frame">
<path id="Vector" d="M66.6076 17.5647C66.1814 21.6595 62.9022 24.7746 58.0445 24.7746C52.737 24.7746 49.3316 20.9484 49.3316 16.241C49.3316 11.5335 52.737 7.60873 58.0445 7.60873C62.7759 7.60873 66.0808 10.6987 66.5562 14.6467H62.2748C61.7993 12.8321 60.2721 11.5316 57.9933 11.5818C55.1382 11.6321 53.5362 13.7153 53.5362 16.1927C53.5362 18.6701 55.1126 20.8035 58.0425 20.8035C60.2701 20.8035 61.9235 19.5532 62.3734 17.5666H66.6056L66.6076 17.5647Z" fill="var(--fill-0, white)"/>
<path id="Vector_2" d="M80.6318 24.405L79.4558 21.3653H72.9467L71.7948 24.405H67.2883L73.9727 7.97535H78.6039L85.3143 24.405H80.6318ZM74.2727 17.9313H78.1279L76.1746 12.9282L74.2727 17.9313Z" fill="var(--fill-0, white)"/>
<path id="Vector_3" d="M99.5318 7.97535V11.8982H94.1V24.405H89.9688V11.8982H84.535V7.97535H99.5318Z" fill="var(--fill-0, white)"/>
<path id="Vector_4" d="M101.872 24.405V7.97535H114.941V11.8982H106.004V14.252H113.69V17.9294H106.004V20.4802H114.941V24.4031H101.872V24.405Z" fill="var(--fill-0, white)"/>
<path id="Vector_5" d="M130.025 15.8462C131.477 16.3603 132.78 17.6356 132.78 19.6724C132.78 22.4687 130.451 24.405 127.646 24.405H118.333V7.97535H127.346C130.149 7.97535 132.33 9.69136 132.33 12.3157C132.33 13.8365 131.403 15.1351 130.025 15.7496V15.8481V15.8462ZM122.464 11.5794V14.4973H126.521C127.498 14.4973 128.099 13.7379 128.099 13.0268C128.099 12.3157 127.523 11.5794 126.521 11.5794H122.464ZM126.872 20.8242C127.875 20.8242 128.549 20.0145 128.549 19.2299C128.549 18.5188 127.898 17.8077 126.872 17.8077H122.464V20.8242H126.872Z" fill="var(--fill-0, white)"/>
<path id="Vector_6" d="M135.863 7.97535H139.995V24.405H135.863V7.97535Z" fill="var(--fill-0, white)"/>
<path id="Vector_7" d="M35.8887 2.87059C35.8449 2.25404 35.7877 1.63867 35.7195 1.02329C35.6635 0.515409 35.1447 0.529584 34.7514 0.654782C33.9574 0.905179 33.228 1.43787 32.6058 1.95521C31.7436 2.67334 30.8912 3.40327 30.0266 4.11668C29.6041 4.46511 29.1791 4.81001 28.748 5.14663C28.698 5.18561 28.6494 5.2234 28.5994 5.26238C28.4217 5.3923 28.2451 5.52577 28.0649 5.65334C27.6508 5.94625 27.1881 6.19547 26.7789 6.49549C26.7266 6.525 26.6742 6.55452 26.6219 6.58409C26.3978 6.70573 26.1713 6.82385 25.9423 6.93484C25.8498 6.97977 25.7561 7.02345 25.6623 7.06713C25.4711 7.14156 25.2812 7.21482 25.0863 7.28096C24.6687 7.42147 24.2424 7.53253 23.8089 7.61754C22.6289 7.76399 21.4575 7.64947 20.3323 7.27032C17.0153 5.94507 14.7393 2.87885 12.7289 0.136264C12.4549 -0.238154 11.4503 0.26737 11.2554 0.364223C10.4188 0.78589 9.58712 1.4674 8.93688 2.11584C8.26344 2.78672 7.5584 3.51902 7.13101 4.36472C6.92395 4.77339 6.57571 5.35687 6.89595 5.79389C9.02821 8.70421 11.3943 11.8035 14.9609 13.1028C19.0891 14.6063 23.4204 12.2547 26.6888 9.93497C27.7495 9.18136 28.7699 8.3829 29.7745 7.56439C30.0047 10.5279 29.9475 13.515 29.4616 16.4512C29.2242 17.7268 28.9063 18.9883 28.4753 20.2155C28.3693 20.5155 28.2573 20.8143 28.1391 21.1108C28.0807 21.2561 28.021 21.4014 27.9589 21.5455C27.9479 21.5715 27.9358 21.5974 27.9236 21.6246C27.6727 22.1502 27.3988 22.6652 27.098 23.166C27.087 23.1849 27.0748 23.2026 27.0639 23.2203C27.059 23.2262 27.0554 23.2333 27.0505 23.2392C26.9275 23.4188 26.7996 23.5947 26.6693 23.7683C26.6328 23.8121 26.5951 23.8546 26.5573 23.8983C26.5451 23.9089 26.5317 23.9184 26.5196 23.929C26.4221 23.9964 26.3235 24.0625 26.2237 24.1275C26.1263 24.1818 26.0301 24.2361 25.9314 24.2869C25.795 24.3577 25.6574 24.4262 25.5186 24.4924C25.4772 24.5125 25.42 24.5373 25.3615 24.5621C25.1423 24.6483 24.9207 24.731 24.6967 24.8054C24.1255 24.9943 23.5422 25.1409 22.9504 25.2519C20.7792 25.5707 18.5569 25.4255 16.4855 24.6991C13.1453 23.3868 10.5918 20.7305 8.86748 17.7127C8.38157 16.8611 7.96025 15.9776 7.59253 15.0717C6.64146 12.5913 6.09836 9.95384 6.09227 7.30453C6.09105 6.76952 5.45905 6.84507 5.12418 6.93602C4.37528 7.13921 3.54357 7.76164 2.97855 8.23645C2.18216 8.90615 1.40526 9.64912 0.818311 10.5019C0.454213 11.0322 -0.00121528 11.6499 2.43673e-06 12.3114C0.00974419 16.2681 1.19094 20.2958 3.23184 23.7152C5.28979 27.1629 8.4315 29.9551 12.4768 30.9591C16.7205 32.0127 21.1762 30.7843 24.7405 28.4846C27.2392 26.8724 29.4007 24.6991 31.1506 22.3463C32.5144 20.5108 33.5811 18.4592 34.3458 16.3237C35.8778 12.0456 36.2066 7.36245 35.8887 2.8694V2.87059ZM25.2897 24.5951C25.1034 24.6731 24.956 24.7298 25.2897 24.5951ZM27.1467 23.0963C27.1236 23.1306 27.1004 23.1648 27.0773 23.1991C27.4694 22.573 27.277 22.9014 27.1467 23.0963ZM27.8749 21.7321C27.8639 21.7557 27.8529 21.7805 27.8445 21.8042C27.8505 21.7888 27.8615 21.764 27.8749 21.7321ZM27.9687 21.5278C27.9638 21.5372 27.9589 21.5478 27.9541 21.5573C28.0259 21.4014 28.0855 21.2774 27.9687 21.5278Z" fill="var(--fill-0, white)"/>
</g>
</svg>
