<svg preserveAspectRatio="none" width="100%" height="100%" overflow="visible" style="display: block;" viewBox="0 0 27.9969 27.9969" fill="none" xmlns="http://www.w3.org/2000/svg">
<g id="Icon">
<path id="Vector" d="M14.2551 2.33307H13.7418C13.123 2.33307 12.5296 2.57888 12.0921 3.01642C11.6545 3.45395 11.4087 4.04738 11.4087 4.66615V4.87613C11.4083 5.28526 11.3003 5.68709 11.0956 6.04131C10.8908 6.39552 10.5965 6.68967 10.2422 6.89424L9.74059 7.18587C9.38592 7.39064 8.98359 7.49844 8.57405 7.49844C8.16451 7.49844 7.76219 7.39064 7.40751 7.18587L7.23253 7.09255C6.69717 6.78372 6.06114 6.69994 5.46406 6.8596C4.86699 7.01926 4.35766 7.4093 4.04788 7.94412L3.79125 8.3874C3.48242 8.92277 3.39864 9.5588 3.5583 10.1559C3.71796 10.7529 4.108 11.2623 4.64282 11.5721L4.8178 11.6887C5.17042 11.8923 5.46362 12.1846 5.66826 12.5366C5.87291 12.8886 5.98188 13.288 5.98434 13.6952V14.2901C5.98597 14.7012 5.87894 15.1054 5.67409 15.4619C5.46924 15.8183 5.17384 16.1143 4.8178 16.3199L4.64282 16.4248C4.108 16.7346 3.71796 17.244 3.5583 17.841C3.39864 18.4381 3.48242 19.0741 3.79125 19.6095L4.04788 20.0528C4.35766 20.5876 4.86699 20.9776 5.46406 21.1373C6.06114 21.297 6.69717 21.2132 7.23253 20.9044L7.40751 20.811C7.76219 20.6063 8.16451 20.4985 8.57405 20.4985C8.98359 20.4985 9.38592 20.6063 9.74059 20.811L10.2422 21.1027C10.5965 21.3072 10.8908 21.6014 11.0956 21.9556C11.3003 22.3098 11.4083 22.7116 11.4087 23.1208V23.3308C11.4087 23.9495 11.6545 24.5429 12.0921 24.9805C12.5296 25.418 13.123 25.6638 13.7418 25.6638H14.2551C14.8739 25.6638 15.4673 25.418 15.9048 24.9805C16.3424 24.5429 16.5882 23.9495 16.5882 23.3308V23.1208C16.5886 22.7116 16.6966 22.3098 16.9013 21.9556C17.1061 21.6014 17.4004 21.3072 17.7547 21.1027L18.2563 20.811C18.611 20.6063 19.0133 20.4985 19.4228 20.4985C19.8324 20.4985 20.2347 20.6063 20.5894 20.811L20.7644 20.9044C21.2997 21.2132 21.9358 21.297 22.5328 21.1373C23.1299 20.9776 23.6392 20.5876 23.949 20.0528L24.2057 19.5978C24.5145 19.0625 24.5983 18.4264 24.4386 17.8294C24.2789 17.2323 23.8889 16.723 23.3541 16.4132L23.1791 16.3199C22.8231 16.1143 22.5277 15.8183 22.3228 15.4619C22.118 15.1054 22.0109 14.7012 22.0126 14.2901V13.7068C22.0109 13.2957 22.118 12.8915 22.3228 12.535C22.5277 12.1786 22.8231 11.8826 23.1791 11.677L23.3541 11.5721C23.8889 11.2623 24.2789 10.7529 24.4386 10.1559C24.5983 9.5588 24.5145 8.92277 24.2057 8.3874L23.949 7.94412C23.6392 7.4093 23.1299 7.01926 22.5328 6.8596C21.9358 6.69994 21.2997 6.78372 20.7644 7.09255L20.5894 7.18587C20.2347 7.39064 19.8324 7.49844 19.4228 7.49844C19.0133 7.49844 18.611 7.39064 18.2563 7.18587L17.7547 6.89424C17.4004 6.68967 17.1061 6.39552 16.9013 6.04131C16.6966 5.68709 16.5886 5.28526 16.5882 4.87613V4.66615C16.5882 4.04738 16.3424 3.45395 15.9048 3.01642C15.4673 2.57888 14.8739 2.33307 14.2551 2.33307Z" stroke="var(--stroke-0, #FF5D03)" stroke-width="2.33308" stroke-linecap="round" stroke-linejoin="round"/>
<path id="Vector_2" d="M13.9985 17.4981C15.9312 17.4981 17.4981 15.9312 17.4981 13.9985C17.4981 12.0657 15.9312 10.4988 13.9985 10.4988C12.0657 10.4988 10.4988 12.0657 10.4988 13.9985C10.4988 15.9312 12.0657 17.4981 13.9985 17.4981Z" stroke="var(--stroke-0, #FF5D03)" stroke-width="2.33308" stroke-linecap="round" stroke-linejoin="round"/>
</g>
</svg>
