<svg preserveAspectRatio="none" width="100%" height="100%" overflow="visible" style="display: block;" viewBox="0 0 23.9895 23.9895" fill="none" xmlns="http://www.w3.org/2000/svg">
<g id="Icon">
<path id="Vector" d="M14.9934 20.9908V12.9943C14.9934 12.7292 14.8881 12.475 14.7007 12.2875C14.5132 12.1001 14.259 11.9948 13.9939 11.9948H9.99562C9.73052 11.9948 9.47628 12.1001 9.28883 12.2875C9.10137 12.475 8.99606 12.7292 8.99606 12.9943V20.9908" stroke="var(--stroke-0, #4A5565)" stroke-width="1.99913" stroke-linecap="round" stroke-linejoin="round"/>
<path id="Vector_2" d="M2.99869 9.99562C2.99862 9.70482 3.06199 9.4175 3.18439 9.15371C3.30679 8.88992 3.48527 8.65601 3.70738 8.46829L10.7043 2.47192C11.0651 2.16696 11.5223 1.99965 11.9948 1.99965C12.4672 1.99965 12.9244 2.16696 13.2852 2.47192L20.2821 8.46829C20.5042 8.65601 20.6827 8.88992 20.8051 9.15371C20.9275 9.4175 20.9909 9.70482 20.9908 9.99562V18.9917C20.9908 19.5219 20.7802 20.0304 20.4053 20.4053C20.0304 20.7802 19.5219 20.9908 18.9917 20.9908H4.99781C4.46761 20.9908 3.95913 20.7802 3.58422 20.4053C3.20931 20.0304 2.99869 19.5219 2.99869 18.9917V9.99562Z" stroke="var(--stroke-0, #4A5565)" stroke-width="1.99913" stroke-linecap="round" stroke-linejoin="round"/>
</g>
</svg>
