<svg preserveAspectRatio="none" width="100%" height="100%" overflow="visible" style="display: block;" viewBox="0 0 127.995 113.773" fill="none" xmlns="http://www.w3.org/2000/svg">
<path id="Vector" d="M127.604 10.4209C127.448 8.18271 127.245 5.94877 127.002 3.71481C126.803 1.87106 124.958 1.92252 123.56 2.37702C120.737 3.28602 118.144 5.21984 115.931 7.09788C112.866 9.70488 109.835 12.3547 106.761 14.9446C105.259 16.2095 103.748 17.4615 102.215 18.6835C102.037 18.825 101.864 18.9622 101.687 19.1037C101.054 19.5754 100.427 20.0599 99.7859 20.523C98.3137 21.5864 96.6685 22.4911 95.2136 23.5802C95.0275 23.6874 94.8415 23.7945 94.6552 23.9019C93.8585 24.3435 93.0531 24.7723 92.2391 25.1752C91.9101 25.3383 91.5769 25.4969 91.2434 25.6554C90.5636 25.9256 89.8883 26.1916 89.1954 26.4317C87.7105 26.9418 86.1949 27.345 84.6535 27.6536C80.4581 28.1852 76.2931 27.7695 72.2925 26.3931C60.4985 21.5821 52.4064 10.4509 45.2581 0.494674C44.2839 -0.864559 40.7119 0.970621 40.0191 1.32222C37.0446 2.85297 34.0874 5.32702 31.7755 7.68104C29.381 10.1165 26.8742 12.7749 25.3546 15.845C24.6184 17.3286 23.3802 19.4468 24.5189 21.0332C32.1002 31.5984 40.5128 42.8497 53.1942 47.5663C67.872 53.0246 83.2724 44.4875 94.8934 36.0664C98.6645 33.3306 102.293 30.432 105.865 27.4606C106.683 38.2188 106.48 49.0626 104.752 59.722C103.908 64.3528 102.778 68.9322 101.245 73.3874C100.868 74.4765 100.47 75.5612 100.05 76.6375C99.842 77.1649 99.6299 77.6923 99.4092 78.2154C99.3701 78.3097 99.327 78.4041 99.2836 78.5027C98.3917 80.4107 97.4175 82.2802 96.348 84.0982C96.3091 84.1669 96.2658 84.2312 96.2269 84.2954C96.2096 84.317 96.1965 84.3426 96.1792 84.3641C95.7419 85.016 95.2873 85.6547 94.8239 86.285C94.694 86.4438 94.5599 86.5981 94.4257 86.7567C94.3823 86.7953 94.3347 86.8297 94.2916 86.8681C93.945 87.1127 93.5944 87.3528 93.2394 87.5887C92.8931 87.7859 92.5511 87.9831 92.2003 88.1675C91.7153 88.4247 91.2261 88.6733 90.7326 88.9134C90.5854 88.9864 90.3818 89.0765 90.1739 89.1666C89.3946 89.4794 88.6067 89.7795 87.81 90.0497C85.7794 90.7357 83.7054 91.2676 81.6013 91.6705C73.8813 92.8282 65.9798 92.3008 58.6151 89.6638C46.7388 84.9001 37.6594 75.2568 31.5287 64.3014C29.801 61.2101 28.303 58.0026 26.9956 54.7138C23.614 45.7096 21.683 36.1349 21.6613 26.5173C21.657 24.5751 19.4099 24.8493 18.2192 25.1795C15.5565 25.9171 12.5993 28.1767 10.5904 29.9004C7.75877 32.3316 4.99645 35.0287 2.90954 38.1245C1.61497 40.0497 -0.00432099 42.2922 8.66392e-06 44.6933C0.0346459 59.0574 4.23443 73.6789 11.4909 86.0921C18.8081 98.6081 29.9786 108.745 44.3619 112.389C59.4506 116.214 75.2928 111.755 87.9658 103.406C96.8503 97.5533 104.535 89.6638 110.757 81.1225C115.607 74.4592 119.399 67.0113 122.118 59.2591C127.565 43.7286 128.734 26.7275 127.604 10.4166V10.4209ZM89.9186 89.2865C89.2561 89.5695 88.7321 89.7752 89.9186 89.2865ZM96.5213 83.8453C96.439 83.9697 96.3568 84.0939 96.2745 84.2184C97.6687 81.9457 96.9844 83.1377 96.5213 83.8453ZM99.1103 78.8928C99.0715 78.9786 99.0323 79.0687 99.0022 79.1545C99.0238 79.0988 99.0627 79.0087 99.1103 78.8928ZM99.4438 78.1512C99.4265 78.1853 99.4092 78.2239 99.3919 78.2583C99.6472 77.6923 99.8593 77.2422 99.4438 78.1512Z" fill="var(--fill-0, white)"/>
</svg>
